<svg version="1.1" id="Layer_1" xmlns="http://www.w3.org/2000/svg" xmlns:xlink="http://www.w3.org/1999/xlink" x="0px" y="0px"
	 width="100%" viewBox="0 0 311 302" enable-background="new 0 0 311 302" xml:space="preserve">
<path fill="#000000" opacity="1.000000" stroke="none" 
	d="
M162.000000,303.000000 
	C158.638718,303.000000 155.277420,303.000000 151.458847,302.531342 
	C151.001236,269.826874 151.020874,237.591049 150.992188,205.355255 
	C150.977844,189.241257 150.875183,173.127304 150.819305,156.801468 
	C150.468445,156.497482 150.110764,156.405365 149.629913,156.289948 
	C149.506744,156.266647 149.350418,156.462677 149.099213,156.666351 
	C143.213730,162.227921 137.579468,167.585815 131.645966,173.246368 
	C131.231598,175.532425 131.017441,177.515762 131.016113,179.499237 
	C130.995071,210.912186 131.096207,242.325729 130.908447,273.737579 
	C130.876984,279.003601 132.497345,283.327545 135.087311,287.708069 
	C138.003616,292.640564 140.385590,297.889008 143.000000,303.000000 
	C95.717087,303.000000 48.434177,303.000000 1.075633,303.000000 
	C1.075633,202.333374 1.075633,101.666695 1.075633,1.000000 
	C3.690297,1.000000 6.354100,1.000000 9.650171,1.298910 
	C11.892006,2.710965 13.501575,3.824110 15.191236,5.164714 
	C15.465059,5.678152 15.733719,5.838990 16.065655,5.899382 
	C16.054003,5.924078 16.107870,5.933085 16.155109,6.178300 
	C16.202351,6.423515 16.589178,6.738723 16.589178,6.738723 
	C16.589178,6.738723 17.085550,6.687448 17.371742,6.787254 
	C18.164816,7.214295 18.671700,7.541529 19.254057,8.198881 
	C22.842951,11.796206 26.222317,15.223228 29.893347,18.302538 
	C44.597080,30.636229 59.403545,42.847427 74.115562,55.171318 
	C74.842888,55.780579 75.429893,57.026966 75.422752,57.971695 
	C75.339684,68.950447 75.129639,79.928238 74.507507,90.932220 
	C71.692551,91.030991 69.323311,91.103821 66.651825,90.981331 
	C62.723820,83.928596 59.098057,77.071190 55.472294,70.213776 
	C55.175732,70.335938 54.879169,70.458099 54.582607,70.580269 
	C54.540405,71.371017 54.498199,72.161766 54.313141,73.339859 
	C54.036118,80.867897 55.062016,88.286911 53.434719,95.069359 
	C51.872482,101.580605 52.157879,107.327690 53.841179,113.512154 
	C54.735470,116.797768 55.175644,120.395424 54.892834,123.774559 
	C54.265312,131.272446 56.197414,136.699936 62.242966,142.162109 
	C76.534721,155.074738 89.701218,169.230118 103.418526,182.786026 
	C104.592979,183.946671 106.480255,184.386032 108.329819,184.986938 
	C120.210419,173.396118 131.797607,161.978821 143.601318,150.215759 
	C144.147797,141.240051 144.477753,132.610123 144.858765,123.625717 
	C144.618225,122.710342 144.472549,121.940193 144.013184,121.619865 
	C136.941681,116.688675 129.798004,111.860832 122.733543,106.919693 
	C110.862885,98.616936 99.036591,90.250755 87.113739,81.454048 
	C87.019081,74.178688 87.094185,67.358528 86.945274,60.543262 
	C86.874931,57.323616 86.375381,54.113350 85.922386,50.589973 
	C68.894623,37.823502 52.014778,25.365891 34.953880,12.614549 
	C30.515354,9.700104 26.201641,7.164345 22.035192,4.406133 
	C20.809151,3.594485 20.000135,2.152893 19.000000,1.000000 
	C110.354225,1.000000 201.708450,1.000000 293.468872,1.274267 
	C293.584106,1.776978 293.293121,2.005423 292.764404,2.241918 
	C292.226471,2.410019 292.039307,2.656049 291.741150,3.077390 
	C291.235718,3.354801 291.054260,3.613095 290.651154,4.005828 
	C289.206970,5.037310 288.084381,6.004567 286.981567,6.985661 
	C287.001312,6.999498 286.973999,6.959514 286.620728,6.998279 
	C271.866547,17.501463 257.409119,27.889353 243.092392,38.467697 
	C237.301208,42.746693 231.817230,47.441490 226.131927,52.415779 
	C226.006378,62.556553 225.942368,72.228622 225.586243,82.066879 
	C215.532883,89.154335 205.758865,96.057663 196.014099,103.002045 
	C186.711182,109.631538 177.438721,116.303780 168.103790,123.426308 
	C168.036346,129.890701 167.745041,135.902542 168.106262,141.874893 
	C168.309296,145.231491 168.512711,149.583038 170.564072,151.667999 
	C182.079605,163.372116 194.157532,174.522873 206.358032,185.769470 
	C221.232895,171.166992 235.810501,156.674759 250.337708,142.132172 
	C252.951538,139.515579 255.357651,136.691513 257.912659,133.499573 
	C258.313385,124.642372 258.862640,116.251190 258.961243,107.854721 
	C259.105255,95.589500 258.925720,83.320480 258.830383,70.778717 
	C258.264954,70.703125 257.753204,70.901909 257.112549,71.391373 
	C256.692627,72.462311 256.401642,73.242569 255.796753,74.177849 
	C253.485352,77.893059 251.759048,81.651337 249.368439,84.924400 
	C248.279831,86.414856 245.878174,86.946259 243.798737,87.628693 
	C241.698380,87.197861 239.871353,87.050987 238.027893,86.441727 
	C237.963959,75.998535 237.916458,66.017738 238.050262,55.743317 
	C239.049973,54.893795 239.921173,54.401493 240.678848,53.772469 
	C252.488724,43.967804 264.359650,34.234451 276.051697,24.290945 
	C282.205719,19.057255 288.041382,13.449212 294.320374,7.858384 
	C297.413330,5.471039 300.206665,3.235517 303.000000,0.999997 
	C305.997101,1.000000 308.994202,1.000000 311.993469,1.000000 
	C311.995667,101.566490 311.995667,202.132980 311.995667,303.000000 
	C264.979523,303.000000 217.958420,303.000000 170.493317,302.637268 
	C170.802994,300.649994 171.476196,298.982025 172.324738,297.408630 
	C175.468979,291.578430 178.671005,285.779419 181.907623,279.504974 
	C181.975983,263.101166 182.023376,247.161011 181.990936,231.221024 
	C181.952774,212.463898 181.845383,193.706909 181.830048,174.599762 
	C175.617004,168.527420 169.341949,162.805176 162.703308,157.304718 
	C162.226791,159.840805 162.016281,162.155060 162.015305,164.469406 
	C161.995712,210.646271 162.000290,256.823151 162.000000,303.000000 
M91.720932,206.839493 
	C94.457703,205.834290 97.578438,205.098175 96.256744,200.375992 
	C97.756523,199.067215 99.256302,197.758438 100.924248,195.728119 
	C100.588226,192.312637 101.354729,188.212158 95.739395,187.279404 
	C92.159546,184.833557 89.789520,179.622772 83.325027,182.059204 
	C81.175873,183.691452 79.026726,185.323700 76.302567,187.468796 
	C71.976288,198.551605 77.905800,209.029556 91.720932,206.839493 
M189.828735,184.625534 
	C189.648560,184.819000 189.468384,185.012466 189.296432,185.837921 
	C189.351654,186.467285 189.406876,187.096664 189.179092,188.661453 
	C189.119751,201.093903 188.993515,213.526505 189.018784,225.958786 
	C189.047424,240.042679 189.211914,254.126312 189.231140,268.924225 
	C189.244141,269.646759 189.257141,270.369293 189.230789,271.393646 
	C189.492996,271.283569 189.755219,271.173492 190.597717,270.692505 
	C197.009979,260.119232 203.422241,249.545975 209.959152,238.046127 
	C209.903702,227.349152 209.848251,216.652176 209.910492,205.264267 
	C203.289459,198.489410 196.668442,191.714569 189.828735,184.625534 
M103.069023,205.899124 
	C103.044434,212.731567 103.358452,219.586411 102.908318,226.390701 
	C102.363319,234.628937 103.666206,241.996552 108.834045,248.807938 
	C113.691345,255.210022 117.739037,262.226349 122.297440,269.521881 
	C125.419075,270.692017 123.913795,267.961823 123.916306,267.263336 
	C124.011299,240.790924 124.008507,214.318100 123.956543,187.845474 
	C123.954155,186.627899 123.377869,185.411423 122.408455,184.293427 
	C116.001709,191.183578 109.594955,198.073730 103.069023,205.899124 
M215.972565,75.027618 
	C215.982162,73.229027 216.144485,71.415787 215.973694,69.634491 
	C215.383041,63.474323 214.676422,57.325283 213.083420,51.036873 
	C191.991592,50.696033 170.900742,50.256466 149.807602,50.046013 
	C133.327667,49.881580 116.844810,49.979477 100.363503,50.034924 
	C98.971634,50.039608 97.581657,50.606312 96.069679,51.813202 
	C96.387978,59.269424 96.569382,66.736168 97.141106,74.172913 
	C97.254250,75.644653 98.557350,77.446404 99.838936,78.338699 
	C108.408051,84.304901 117.093887,90.105255 125.792503,95.883171 
	C135.848785,102.562897 145.957153,109.164223 156.745499,115.860138 
	C157.632248,115.443336 158.586685,115.129013 159.395706,114.594551 
	C173.679901,105.157852 187.992981,95.763481 202.190430,86.197609 
	C206.910492,83.017349 211.323929,79.382011 215.972565,75.027618 
M233.738815,187.280319 
	C231.846085,185.852036 229.585388,184.721298 228.138748,182.932297 
	C225.301407,179.423370 223.099121,181.531403 220.975052,183.406982 
	C219.461044,184.743835 218.354050,186.541656 216.302597,188.119400 
	C215.728851,188.409836 215.013901,188.569626 214.604446,189.012085 
	C212.102585,191.715775 212.459427,198.513672 215.238083,202.325577 
	C217.803009,205.844284 224.892990,208.325668 227.990051,206.600098 
	C228.633591,206.241531 228.760086,204.954910 229.829453,203.979630 
	C233.136017,201.283249 238.944138,201.095062 238.959930,194.202576 
	C238.889816,190.879120 238.347305,187.922791 233.738815,187.280319 
z"/>
<path fill="#6E7178" opacity="1.000000" stroke="none" 
	d="
M150.812485,157.013336 
	C150.875183,173.127304 150.977844,189.241257 150.992188,205.355255 
	C151.020874,237.591049 151.001236,269.826874 151.000778,302.531342 
	C149.933334,303.000000 148.866653,303.000000 147.401947,302.616272 
	C146.291718,299.844940 145.579529,297.457397 145.048050,294.688812 
	C145.483078,292.508545 145.937271,290.712006 145.961761,288.909637 
	C146.337051,261.288605 146.436279,233.661758 147.071274,206.047134 
	C147.451508,189.511307 144.920135,172.816666 149.350418,156.462677 
	C149.350418,156.462677 149.506744,156.266647 149.890228,156.472687 
	C150.453308,156.790268 150.632904,156.901810 150.812485,157.013336 
z"/>
<path fill="#46474B" opacity="1.000000" stroke="none" 
	d="
M162.399994,303.000000 
	C162.000290,256.823151 161.995712,210.646271 162.015305,164.469406 
	C162.016281,162.155060 162.226791,159.840805 162.723663,157.665421 
	C164.393265,160.873718 165.678940,163.943085 166.812927,167.396942 
	C166.473038,170.593353 166.107422,173.406296 166.123352,176.217087 
	C166.351624,216.482346 166.631363,256.747284 166.760620,297.360779 
	C166.415024,299.472809 166.207520,301.236420 166.000000,303.000000 
	C164.933334,303.000000 163.866653,303.000000 162.399994,303.000000 
z"/>
<path fill="#46474B" opacity="1.000000" stroke="none" 
	d="
M144.867325,295.069824 
	C145.579529,297.457397 146.291718,299.844940 147.001953,302.616272 
	C145.933334,303.000000 144.866653,303.000000 143.399994,303.000000 
	C140.385590,297.889008 138.003616,292.640564 135.087311,287.708069 
	C132.497345,283.327545 130.876984,279.003601 130.908447,273.737579 
	C131.096207,242.325729 130.995071,210.912186 131.016113,179.499237 
	C131.017441,177.515762 131.231598,175.532425 131.927368,173.491852 
	C133.352020,176.149216 134.911804,178.859100 134.929611,181.579071 
	C135.111023,209.305649 135.590714,237.049835 134.784012,264.754089 
	C134.439774,276.575989 138.270065,286.044067 144.867325,295.069824 
z"/>
<path fill="#5C5E64" opacity="1.000000" stroke="none" 
	d="
M166.399994,303.000000 
	C166.207520,301.236420 166.415024,299.472809 167.030548,297.144531 
	C170.964249,291.036652 174.489929,285.493439 178.399139,279.959320 
	C179.805573,279.968506 180.828476,279.968597 181.851349,279.968689 
	C178.671005,285.779419 175.468979,291.578430 172.324738,297.408630 
	C171.476196,298.982025 170.802994,300.649994 170.024658,302.637268 
	C168.933334,303.000000 167.866653,303.000000 166.399994,303.000000 
z"/>
<path fill="#6E7178" opacity="1.000000" stroke="none" 
	d="
M18.550020,1.000000 
	C20.000135,2.152893 20.809151,3.594485 22.035192,4.406133 
	C26.201641,7.164345 30.515354,9.700104 34.736237,12.821859 
	C34.180237,14.164019 33.660824,15.005136 32.801838,15.775084 
	C28.034370,13.092196 23.606478,10.480480 19.178583,7.868763 
	C18.671700,7.541529 18.164816,7.214295 17.238651,6.625792 
	C16.615219,6.166263 16.378054,6.022451 16.107870,5.933085 
	C16.107870,5.933085 16.054003,5.924078 15.969065,5.685855 
	C15.683488,5.191154 15.425826,5.021029 15.111143,4.937255 
	C13.501575,3.824110 11.892006,2.710965 10.141219,1.298910 
	C12.700013,1.000000 15.400027,1.000000 18.550020,1.000000 
z"/>
<path fill="#676A70" opacity="1.000000" stroke="none" 
	d="
M293.002136,2.233869 
	C293.293121,2.005423 293.584106,1.776978 293.937561,1.274267 
	C296.700012,1.000000 299.400024,1.000000 302.550018,0.999997 
	C300.206665,3.235517 297.413330,5.471039 293.966248,7.905892 
	C290.667419,9.440333 288.022339,10.775443 284.519226,12.543636 
	C285.599213,10.086910 286.286621,8.523216 286.973999,6.959517 
	C286.973999,6.959514 287.001312,6.999498 287.321350,6.938611 
	C288.751831,5.899018 289.862274,4.920310 290.972748,3.941603 
	C291.054260,3.613095 291.235718,3.354801 291.933289,2.980147 
	C292.589996,2.633813 292.807556,2.447245 293.002136,2.233869 
z"/>
<path fill="#686B71" opacity="1.000000" stroke="none" 
	d="
M96.190804,50.911919 
	C97.581657,50.606312 98.971634,50.039608 100.363503,50.034924 
	C116.844810,49.979477 133.327667,49.881580 149.807602,50.046013 
	C170.900742,50.256466 191.991592,50.696033 213.413498,51.431610 
	C212.831161,55.407482 211.386887,58.953575 211.148041,62.579082 
	C210.881027,66.632301 211.707199,70.757545 211.714569,74.961769 
	C203.013931,80.438698 194.633224,85.769745 186.304642,91.180992 
	C176.172424,97.764091 166.084106,104.414749 155.698669,110.844604 
	C141.539825,101.285683 127.590431,92.018127 113.796814,82.524254 
	C98.585487,72.054626 101.547066,77.444427 100.993355,59.374592 
	C100.876381,55.557156 99.897362,52.541389 96.190804,50.911919 
M171.578094,93.743141 
	C172.957184,90.794373 174.336288,87.845596 175.792267,84.076645 
	C175.300217,69.345024 167.974442,62.573257 152.283020,63.085979 
	C149.527863,64.394890 146.772720,65.703804 143.480011,67.396843 
	C140.926422,69.959999 137.661240,72.407410 141.999771,76.835533 
	C141.613434,78.228447 141.227112,79.621361 140.128998,81.119690 
	C134.789780,83.422134 137.280472,86.763939 139.154770,90.670609 
	C141.426102,93.066605 143.697418,95.462608 146.475418,98.337120 
	C149.290939,99.986061 152.301163,102.888039 154.742844,97.027969 
	C157.456558,97.332504 160.170288,97.637039 163.686371,97.938072 
	C166.142227,96.690514 168.598068,95.442963 171.578094,93.743141 
z"/>
<path fill="#676A70" opacity="1.000000" stroke="none" 
	d="
M145.048050,294.688812 
	C138.270065,286.044067 134.439774,276.575989 134.784012,264.754089 
	C135.590714,237.049835 135.111023,209.305649 134.929611,181.579071 
	C134.911804,178.859100 133.352020,176.149216 132.226578,173.189178 
	C137.579468,167.585815 143.213730,162.227921 149.099213,156.666351 
	C144.920135,172.816666 147.451508,189.511307 147.071274,206.047134 
	C146.436279,233.661758 146.337051,261.288605 145.961761,288.909637 
	C145.937271,290.712006 145.483078,292.508545 145.048050,294.688812 
z"/>
<path fill="#46474B" opacity="1.000000" stroke="none" 
	d="
M19.254057,8.198881 
	C23.606478,10.480480 28.034370,13.092196 33.030243,16.013550 
	C46.804142,26.814011 60.010056,37.304832 73.349457,48.076721 
	C74.348251,48.869190 75.213554,49.380592 76.041832,49.937202 
	C76.004799,49.982407 76.085991,49.900501 76.229713,50.223061 
	C77.553108,53.835857 79.540733,57.075668 79.749847,60.426468 
	C80.234787,68.196701 79.638397,76.029968 79.967926,83.817039 
	C80.068222,86.187035 81.104118,89.290375 82.824242,90.700134 
	C101.432877,105.951187 120.263641,120.931206 139.158386,136.223175 
	C139.509766,136.947464 139.736496,137.433823 139.644196,137.904510 
	C138.899429,137.874512 138.473694,137.860153 137.746765,137.697479 
	C135.385452,136.733093 133.325333,135.917007 130.956207,134.924774 
	C128.819229,133.370483 126.991257,131.992325 125.007294,130.391052 
	C124.258011,129.769958 123.664726,129.371979 122.888405,128.689880 
	C119.137794,125.603432 115.570206,122.801102 111.825790,119.717796 
	C109.142632,117.547173 106.636299,115.657524 103.950058,113.502342 
	C102.249229,112.122269 100.728325,111.007729 99.024506,109.616196 
	C97.257034,108.159492 95.672478,106.979805 93.910706,105.536438 
	C92.201241,104.143768 90.668976,103.014763 88.938660,101.620438 
	C86.483292,99.591118 84.225990,97.827126 81.722588,95.844025 
	C79.302063,94.052040 77.127640,92.479164 74.953224,90.906288 
	C75.129639,79.928238 75.339684,68.950447 75.422752,57.971695 
	C75.429893,57.026966 74.842888,55.780579 74.115562,55.171318 
	C59.403545,42.847427 44.597080,30.636229 29.893347,18.302538 
	C26.222317,15.223228 22.842951,11.796206 19.254057,8.198881 
z"/>
<path fill="#585A5F" opacity="1.000000" stroke="none" 
	d="
M286.620728,6.998283 
	C286.286621,8.523216 285.599213,10.086910 284.519226,12.543636 
	C288.022339,10.775443 290.667419,9.440333 293.666626,8.057716 
	C288.041382,13.449212 282.205719,19.057255 276.051697,24.290945 
	C264.359650,34.234451 252.488724,43.967804 240.678848,53.772469 
	C239.921173,54.401493 239.049973,54.893795 237.735428,55.649845 
	C236.197937,55.510983 235.156601,55.171982 234.185760,54.565498 
	C234.527557,53.254826 234.798874,52.211639 235.291077,50.319065 
	C233.273270,51.543701 232.033646,52.296047 230.468246,52.956932 
	C228.826141,52.559338 227.509796,52.253208 226.193466,51.947075 
	C231.817230,47.441490 237.301208,42.746693 243.092392,38.467697 
	C257.409119,27.889353 271.866547,17.501463 286.620728,6.998283 
M238.161957,49.000301 
	C238.451874,48.760223 238.741791,48.520145 239.031723,48.280079 
	C238.933304,48.173313 238.834885,48.066547 238.736465,47.959782 
	C238.479630,48.235363 238.222794,48.510941 238.161957,49.000301 
M282.078644,14.494460 
	C281.755341,14.393412 281.433624,14.285469 281.104523,14.209659 
	C281.086151,14.205429 281.006622,14.466678 280.955566,14.604367 
	C281.293793,14.658236 281.631989,14.712104 282.078644,14.494460 
M242.884628,44.925243 
	C242.884628,44.925243 243.102234,45.089642 243.102234,45.089642 
	C243.102234,45.089642 242.968689,44.853672 242.884628,44.925243 
M276.509338,18.525909 
	C276.509338,18.525909 276.496307,18.485655 276.509338,18.525909 
M247.524551,41.490417 
	C247.524551,41.490417 247.484024,41.501926 247.524551,41.490417 
z"/>
<path fill="#46474B" opacity="1.000000" stroke="none" 
	d="
M108.036392,185.160461 
	C106.480255,184.386032 104.592979,183.946671 103.418526,182.786026 
	C89.701218,169.230118 76.534721,155.074738 62.242966,142.162109 
	C56.197414,136.699936 54.265312,131.272446 54.892834,123.774559 
	C55.175644,120.395424 54.735470,116.797768 53.841179,113.512154 
	C52.157879,107.327690 51.872482,101.580605 53.434719,95.069359 
	C55.062016,88.286911 54.036118,80.867897 54.634941,73.567719 
	C56.521149,78.542961 57.942696,83.677689 59.261948,89.288231 
	C59.118229,102.915611 58.910191,116.070755 59.192139,129.215393 
	C59.241680,131.525208 60.852459,134.285568 62.575989,135.999344 
	C77.215042,150.555511 92.047203,164.917480 106.876556,179.704407 
	C107.299904,181.767563 107.668152,183.464020 108.036392,185.160461 
z"/>
<path fill="#6E7178" opacity="1.000000" stroke="none" 
	d="
M181.907639,279.504974 
	C180.828476,279.968597 179.805573,279.968506 178.396164,279.496338 
	C178.010864,244.669556 178.012085,210.314880 178.312073,175.829285 
	C179.663223,175.448853 180.715622,175.199356 181.768005,174.949860 
	C181.845383,193.706909 181.952774,212.463898 181.990936,231.221024 
	C182.023376,247.161011 181.975983,263.101166 181.907639,279.504974 
z"/>
<path fill="#45474B" opacity="1.000000" stroke="none" 
	d="
M96.130241,51.362560 
	C99.897362,52.541389 100.876381,55.557156 100.993355,59.374592 
	C101.547066,77.444427 98.585487,72.054626 113.796814,82.524254 
	C127.590431,92.018127 141.539825,101.285683 155.710938,111.240807 
	C156.015182,113.152252 156.029053,114.475922 156.042908,115.799583 
	C145.957153,109.164223 135.848785,102.562897 125.792503,95.883171 
	C117.093887,90.105255 108.408051,84.304901 99.838936,78.338699 
	C98.557350,77.446404 97.254250,75.644653 97.141106,74.172913 
	C96.569382,66.736168 96.387978,59.269424 96.130241,51.362560 
z"/>
<path fill="#686B71" opacity="1.000000" stroke="none" 
	d="
M217.065430,188.133759 
	C218.354050,186.541656 219.461044,184.743835 220.975052,183.406982 
	C223.099121,181.531403 225.301407,179.423370 228.138748,182.932297 
	C229.585388,184.721298 231.846085,185.852036 233.797272,187.905487 
	C233.137375,192.524246 234.662918,194.782837 238.846939,194.985916 
	C238.944138,201.095062 233.136017,201.283249 229.100143,203.953491 
	C217.897369,200.990387 216.894943,199.589996 217.065430,188.133759 
z"/>
<path fill="#45474B" opacity="1.000000" stroke="none" 
	d="
M206.043533,185.862488 
	C194.157532,174.522873 182.079605,163.372116 170.564072,151.667999 
	C168.512711,149.583038 168.309296,145.231491 168.106262,141.874893 
	C167.745041,135.902542 168.036346,129.890701 168.394562,123.539879 
	C169.828690,123.788017 170.922989,124.391663 172.017181,125.444115 
	C172.283325,129.349609 172.549545,132.806290 172.816376,136.520538 
	C172.823990,137.126099 172.831009,137.474121 172.830170,138.287582 
	C173.708328,142.814651 173.275131,148.106430 175.713104,150.720871 
	C185.300140,161.001968 195.790833,170.440399 205.944794,180.596710 
	C205.976883,182.621994 206.010208,184.242249 206.043533,185.862488 
z"/>
<path fill="#53555A" opacity="1.000000" stroke="none" 
	d="
M156.394196,115.829865 
	C156.029053,114.475922 156.015182,113.152252 155.989059,111.432388 
	C166.084106,104.414749 176.172424,97.764091 186.304642,91.180992 
	C194.633224,85.769745 203.013931,80.438698 212.026398,75.077003 
	C213.746689,75.372849 214.812134,75.663788 215.877563,75.954727 
	C211.323929,79.382011 206.910492,83.017349 202.190430,86.197609 
	C187.992981,95.763481 173.679901,105.157852 159.395706,114.594551 
	C158.586685,115.129013 157.632248,115.443336 156.394196,115.829865 
z"/>
<path fill="#6E7178" opacity="1.000000" stroke="none" 
	d="
M123.068878,184.194443 
	C123.377869,185.411423 123.954155,186.627899 123.956543,187.845474 
	C124.008507,214.318100 124.011299,240.790924 123.916306,267.263336 
	C123.913795,267.961823 125.419075,270.692017 122.317207,268.947052 
	C121.229088,264.245575 120.121201,260.118927 119.170273,255.612305 
	C119.548134,253.592239 119.959503,251.952301 119.960831,250.312042 
	C119.976097,231.497086 119.929024,212.682083 119.988335,193.515045 
	C121.075035,190.173492 122.071953,187.183975 123.068878,184.194443 
z"/>
<path fill="#787B81" opacity="1.000000" stroke="none" 
	d="
M87.191628,81.911255 
	C99.036591,90.250755 110.862885,98.616936 122.733543,106.919693 
	C129.798004,111.860832 136.941681,116.688675 144.013184,121.619865 
	C144.472549,121.940193 144.618225,122.710342 144.472656,123.631325 
	C143.006348,124.025589 141.977173,124.059776 140.615906,123.982285 
	C130.214523,117.098320 120.062820,110.444588 110.100174,103.518898 
	C100.957047,97.162895 92.017731,90.513680 83.274979,83.818115 
	C84.771439,83.065483 85.981529,82.488365 87.191628,81.911255 
z"/>
<path fill="#595B60" opacity="1.000000" stroke="none" 
	d="
M172.017273,124.995316 
	C170.922989,124.391663 169.828690,123.788017 168.443634,123.070801 
	C177.438721,116.303780 186.711182,109.631538 196.014099,103.002045 
	C205.758865,96.057663 215.532883,89.154335 225.867218,82.213425 
	C227.291580,82.808624 228.142838,83.423462 228.848328,84.333572 
	C227.126892,86.077583 225.693176,87.729790 223.953552,88.943565 
	C206.670395,101.002289 189.336685,112.988556 172.017273,124.995316 
z"/>
<path fill="#595B60" opacity="1.000000" stroke="none" 
	d="
M206.358032,185.769470 
	C206.010208,184.242249 205.976883,182.621994 206.141388,180.305420 
	C222.231995,164.052811 238.124771,148.496567 254.337616,133.027283 
	C255.724991,133.397263 256.792328,133.680252 257.859680,133.963242 
	C255.357651,136.691513 252.951538,139.515579 250.337708,142.132172 
	C235.810501,156.674759 221.232895,171.166992 206.358032,185.769470 
z"/>
<path fill="#46474B" opacity="1.000000" stroke="none" 
	d="
M189.317337,268.210052 
	C189.211914,254.126312 189.047424,240.042679 189.018784,225.958786 
	C188.993515,213.526505 189.119751,201.093903 189.643158,188.308380 
	C191.231201,190.551956 192.355164,193.148621 193.376358,196.225220 
	C193.225632,216.448639 193.177673,236.192123 193.093811,256.353851 
	C191.811050,260.584747 190.564194,264.397400 189.317337,268.210052 
z"/>
<path fill="#686B71" opacity="1.000000" stroke="none" 
	d="
M100.756081,196.449661 
	C99.256302,197.758438 97.756523,199.067215 95.705299,200.721283 
	C93.428413,201.730804 91.702972,202.395035 89.578201,203.049774 
	C80.442383,202.126526 77.667191,197.775955 80.464851,188.808533 
	C83.075142,187.115829 85.169067,185.462326 84.030922,182.156281 
	C89.789520,179.622772 92.159546,184.833557 95.796890,187.905518 
	C94.845924,192.806747 97.603958,194.750183 100.756081,196.449661 
z"/>
<path fill="#86898F" opacity="1.000000" stroke="none" 
	d="
M73.215973,47.795654 
	C60.010056,37.304832 46.804142,26.814011 33.369820,16.084721 
	C33.660824,15.005136 34.180237,14.164019 34.917290,13.115590 
	C52.014778,25.365891 68.894623,37.823502 85.664886,50.799873 
	C84.365097,51.895111 83.174896,52.471588 81.716476,52.841724 
	C79.660835,51.723759 77.873413,50.812130 76.085991,49.900497 
	C76.085991,49.900501 76.004799,49.982407 75.894424,49.665813 
	C74.928024,48.831364 74.071999,48.313511 73.215973,47.795654 
z"/>
<path fill="#45474B" opacity="1.000000" stroke="none" 
	d="
M119.013313,255.992279 
	C120.121201,260.118927 121.229088,264.245575 122.239960,268.672333 
	C117.739037,262.226349 113.691345,255.210022 108.834045,248.807938 
	C103.666206,241.996552 102.363319,234.628937 102.908318,226.390701 
	C103.358452,219.586411 103.044434,212.731567 103.446098,205.516144 
	C104.879860,205.422440 105.936539,205.711716 106.994644,206.469543 
	C106.999084,215.429306 106.935478,223.921432 107.052101,232.411072 
	C107.081161,234.526093 107.138298,236.951767 108.136192,238.685852 
	C111.532021,244.586945 115.354027,250.242798 119.013313,255.992279 
z"/>
<path fill="#6E7178" opacity="1.000000" stroke="none" 
	d="
M257.912659,133.499573 
	C256.792328,133.680252 255.724991,133.397263 254.333679,132.565033 
	C254.006287,120.278748 254.060562,108.541153 253.954788,96.805000 
	C253.931335,94.203239 253.342773,91.606567 253.117188,88.649223 
	C254.183533,83.534874 255.147095,78.778847 256.110657,74.022827 
	C256.401642,73.242569 256.692627,72.462311 257.386414,71.382454 
	C258.154175,71.072929 258.519104,71.063011 258.884064,71.053085 
	C258.925720,83.320480 259.105255,95.589500 258.961243,107.854721 
	C258.862640,116.251190 258.313385,124.642372 257.912659,133.499573 
z"/>
<path fill="#595B60" opacity="1.000000" stroke="none" 
	d="
M108.329819,184.986938 
	C107.668152,183.464020 107.299904,181.767563 107.207901,179.541580 
	C109.405083,177.439301 111.426147,175.972977 113.230034,174.275833 
	C122.196991,165.839371 131.106750,157.342102 140.392303,148.975723 
	C141.626907,149.577316 142.505844,150.069427 143.384781,150.561523 
	C131.797607,161.978821 120.210419,173.396118 108.329819,184.986938 
z"/>
<path fill="#86898F" opacity="1.000000" stroke="none" 
	d="
M59.364243,88.812416 
	C57.942696,83.677689 56.521149,78.542961 54.777798,73.180374 
	C54.498199,72.161766 54.540405,71.371017 54.582607,70.580269 
	C54.879169,70.458099 55.175732,70.335938 55.472294,70.213776 
	C59.098057,77.071190 62.723820,83.928596 66.707893,91.310173 
	C67.957664,93.606186 68.849121,95.378029 69.838333,97.454346 
	C70.537575,98.867813 71.139069,99.976814 71.842865,101.413734 
	C72.888077,103.513458 73.830986,105.285255 74.881104,107.385773 
	C75.974251,109.488380 76.960182,111.262260 78.027679,113.352249 
	C78.404839,114.487106 78.700432,115.305870 78.828484,116.362762 
	C78.107918,117.410156 77.554886,118.219414 76.736618,118.817230 
	C74.532669,115.185143 72.612160,111.754051 70.651390,108.346115 
	C66.901108,101.827919 63.127918,95.322906 59.364243,88.812416 
z"/>
<path fill="#4F5154" opacity="1.000000" stroke="none" 
	d="
M255.796753,74.177849 
	C255.147095,78.778847 254.183533,83.534874 252.889282,88.903778 
	C251.272812,91.842690 250.001709,94.176994 248.698471,96.493210 
	C244.470917,104.006775 240.231598,111.513733 235.836121,118.769661 
	C235.106842,117.694267 234.538254,116.872437 234.062531,115.707253 
	C235.452988,112.589325 236.750595,109.814751 238.265228,106.802139 
	C239.301910,105.051804 240.121567,103.539497 241.118073,101.728180 
	C242.227951,99.296570 243.160950,97.163979 244.324585,94.788300 
	C244.394165,92.334366 244.233124,90.123520 244.072098,87.912674 
	C245.878174,86.946259 248.279831,86.414856 249.368439,84.924400 
	C251.759048,81.651337 253.485352,77.893059 255.796753,74.177849 
z"/>
<path fill="#717479" opacity="1.000000" stroke="none" 
	d="
M234.115265,54.832977 
	C235.156601,55.171982 236.197937,55.510983 237.554108,55.943459 
	C237.916458,66.017738 237.963959,75.998535 237.995239,86.815338 
	C237.958954,88.400360 237.938858,89.149384 237.594055,89.835014 
	C236.199936,89.462807 235.130524,89.153999 234.051285,88.402817 
	C233.809494,84.987511 233.344147,82.010925 233.390442,79.042328 
	C233.516296,70.970741 233.858688,62.902527 234.115265,54.832977 
z"/>
<path fill="#46474B" opacity="1.000000" stroke="none" 
	d="
M228.994080,84.038292 
	C228.142838,83.423462 227.291580,82.808624 226.159348,82.047241 
	C225.942368,72.228622 226.006378,62.556553 226.131927,52.415779 
	C227.509796,52.253208 228.826141,52.559338 230.490494,53.420425 
	C230.851303,62.054276 230.983871,70.136040 230.790512,78.209999 
	C230.743668,80.165985 229.621689,82.096222 228.994080,84.038292 
z"/>
<path fill="#6E7178" opacity="1.000000" stroke="none" 
	d="
M81.984688,53.048061 
	C83.174896,52.471588 84.365097,51.895111 85.812805,51.108734 
	C86.375381,54.113350 86.874931,57.323616 86.945274,60.543262 
	C87.094185,67.358528 87.019081,74.178688 87.113739,81.454048 
	C85.981529,82.488365 84.771439,83.065483 83.117783,83.438309 
	C82.444374,73.172035 82.214531,63.110046 81.984688,53.048061 
z"/>
<path fill="#606268" opacity="1.000000" stroke="none" 
	d="
M189.274231,268.567139 
	C190.564194,264.397400 191.811050,260.584747 193.393768,256.230377 
	C194.903122,254.359314 196.245300,253.142258 197.218658,251.679733 
	C200.223236,247.165085 203.087112,242.556793 206.325333,238.065277 
	C207.708191,238.421341 208.771347,238.697021 209.834503,238.972702 
	C203.422241,249.545975 197.009979,260.119232 190.119949,270.863800 
	C189.642181,271.035095 189.270142,271.091827 189.270142,271.091827 
	C189.257141,270.369293 189.244141,269.646759 189.274231,268.567139 
z"/>
<path fill="#6E7178" opacity="1.000000" stroke="none" 
	d="
M209.896820,238.509415 
	C208.771347,238.697021 207.708191,238.421341 206.323700,237.598343 
	C206.008438,227.014954 206.014496,216.978867 206.320770,206.813629 
	C207.678268,206.441391 208.735535,206.198303 209.792816,205.955200 
	C209.848251,216.652176 209.903702,227.349152 209.896820,238.509415 
z"/>
<path fill="#86898F" opacity="1.000000" stroke="none" 
	d="
M209.851654,205.609741 
	C208.735535,206.198303 207.678268,206.441391 206.052551,206.622330 
	C201.482437,202.955215 197.480774,199.350250 193.479126,195.745285 
	C192.355164,193.148621 191.231201,190.551956 189.784668,187.840668 
	C189.406876,187.096664 189.351654,186.467285 189.498535,185.502151 
	C189.700623,185.166382 190.047409,184.939713 190.047409,184.939713 
	C196.668442,191.714569 203.289459,198.489410 209.851654,205.609741 
z"/>
<path fill="#46474B" opacity="1.000000" stroke="none" 
	d="
M80.211281,188.982071 
	C77.667191,197.775955 80.442383,202.126526 89.663239,203.363251 
	C90.442215,204.732880 90.736824,205.779510 91.031433,206.826157 
	C77.905800,209.029556 71.976288,198.551605 76.862946,187.383911 
	C78.352638,187.860031 79.281960,188.421051 80.211281,188.982071 
z"/>
<path fill="#6E7178" opacity="1.000000" stroke="none" 
	d="
M143.601318,150.215759 
	C142.505844,150.069427 141.626907,149.577316 140.385025,148.531235 
	C140.002472,144.624893 139.982849,141.272537 139.963226,137.920166 
	C139.736496,137.433823 139.509766,136.947464 139.408905,135.945496 
	C140.005859,131.651245 140.476944,127.872604 140.948013,124.093964 
	C141.977173,124.059776 143.006348,124.025589 144.421600,123.985794 
	C144.477753,132.610123 144.147797,141.240051 143.601318,150.215759 
z"/>
<path fill="#53555A" opacity="1.000000" stroke="none" 
	d="
M106.993225,206.000992 
	C105.936539,205.711716 104.879860,205.422440 103.505692,205.048523 
	C109.594955,198.073730 116.001709,191.183578 122.738663,184.243927 
	C122.071953,187.183975 121.075035,190.173492 119.726608,193.721405 
	C115.247810,198.186844 111.120514,202.093918 106.993225,206.000992 
z"/>
<path fill="#46474B" opacity="1.000000" stroke="none" 
	d="
M216.684021,188.126587 
	C216.894943,199.589996 217.897369,200.990387 228.747864,204.011658 
	C228.760086,204.954910 228.633591,206.241531 227.990051,206.600098 
	C224.892990,208.325668 217.803009,205.844284 215.238083,202.325577 
	C212.459427,198.513672 212.102585,191.715775 214.604446,189.012085 
	C215.013901,188.569626 215.728851,188.409836 216.684021,188.126587 
z"/>
<path fill="#717479" opacity="1.000000" stroke="none" 
	d="
M215.925064,75.491180 
	C214.812134,75.663788 213.746689,75.372849 212.369446,74.966675 
	C211.707199,70.757545 210.881027,66.632301 211.148041,62.579082 
	C211.386887,58.953575 212.831161,55.407482 213.878754,51.499176 
	C214.676422,57.325283 215.383041,63.474323 215.973694,69.634491 
	C216.144485,71.415787 215.982162,73.229027 215.925064,75.491180 
z"/>
<path fill="#86898F" opacity="1.000000" stroke="none" 
	d="
M181.830048,174.599762 
	C180.715622,175.199356 179.663223,175.448853 178.040909,175.640289 
	C173.968857,172.725632 170.466736,169.869049 166.964615,167.012466 
	C165.678940,163.943085 164.393265,160.873718 163.087234,157.443634 
	C169.341949,162.805176 175.617004,168.527420 181.830048,174.599762 
z"/>
<path fill="#5E5A50" opacity="1.000000" stroke="none" 
	d="
M69.740578,97.149879 
	C68.849121,95.378029 67.957664,93.606186 67.010132,91.505493 
	C69.323311,91.103821 71.692551,91.030991 74.507507,90.932220 
	C77.127640,92.479164 79.302063,94.052040 81.436424,95.947861 
	C77.511101,96.563828 73.625839,96.856857 69.740578,97.149879 
z"/>
<path fill="#5E5A50" opacity="1.000000" stroke="none" 
	d="
M237.918762,89.898407 
	C237.938858,89.149384 237.958954,88.400360 238.011688,87.277725 
	C239.871353,87.050987 241.698380,87.197861 243.798737,87.628700 
	C244.233124,90.123520 244.394165,92.334366 244.061584,94.574791 
	C241.702652,93.400124 239.837341,92.195885 237.959183,90.718307 
	C237.937134,90.262787 237.927948,90.080597 237.918762,89.898407 
z"/>
<path fill="#595B60" opacity="1.000000" stroke="none" 
	d="
M80.464851,188.808533 
	C79.281960,188.421051 78.352638,187.860031 77.150444,187.127487 
	C79.026726,185.323700 81.175873,183.691452 83.677979,182.107742 
	C85.169067,185.462326 83.075142,187.115829 80.464851,188.808533 
z"/>
<path fill="#717479" opacity="1.000000" stroke="none" 
	d="
M100.840164,196.088898 
	C97.603958,194.750183 94.845924,192.806747 95.952385,188.207581 
	C101.354729,188.212158 100.588226,192.312637 100.840164,196.088898 
z"/>
<path fill="#717479" opacity="1.000000" stroke="none" 
	d="
M238.903442,194.594238 
	C234.662918,194.782837 233.137375,192.524246 233.952789,188.207687 
	C238.347305,187.922791 238.889816,190.879120 238.903442,194.594238 
z"/>
<path fill="#53555A" opacity="1.000000" stroke="none" 
	d="
M91.376183,206.832825 
	C90.736824,205.779510 90.442215,204.732880 90.062576,203.372742 
	C91.702972,202.395035 93.428413,201.730804 95.498291,201.012482 
	C97.578438,205.098175 94.457703,205.834290 91.376183,206.832825 
z"/>
<path fill="#585A5F" opacity="1.000000" stroke="none" 
	d="
M290.651154,4.005829 
	C289.862274,4.920310 288.751831,5.899018 287.301575,6.924774 
	C288.084381,6.004567 289.206970,5.037310 290.651154,4.005829 
z"/>
<path fill="#4F5154" opacity="1.000000" stroke="none" 
	d="
M258.830383,70.778717 
	C258.519104,71.063011 258.154175,71.072929 257.515320,71.091766 
	C257.753204,70.901909 258.264954,70.703125 258.830383,70.778717 
z"/>
<path fill="#46474B" opacity="1.000000" stroke="none" 
	d="
M16.155109,6.178300 
	C16.378054,6.022451 16.615219,6.166263 16.952459,6.525984 
	C17.085550,6.687448 16.589178,6.738723 16.589178,6.738723 
	C16.589178,6.738723 16.202351,6.423515 16.155109,6.178300 
z"/>
<path fill="#46474B" opacity="1.000000" stroke="none" 
	d="
M15.191236,5.164713 
	C15.425826,5.021029 15.683488,5.191154 15.980717,5.661158 
	C15.733719,5.838990 15.465059,5.678152 15.191236,5.164713 
z"/>
<path fill="#46474B" opacity="1.000000" stroke="none" 
	d="
M189.938080,184.782623 
	C190.047409,184.939713 189.700623,185.166382 189.494415,185.186157 
	C189.468384,185.012466 189.648560,184.819000 189.938080,184.782623 
z"/>
<path fill="#585A5F" opacity="1.000000" stroke="none" 
	d="
M292.764404,2.241920 
	C292.807556,2.447245 292.589996,2.633813 292.157288,2.890816 
	C292.039307,2.656049 292.226471,2.410019 292.764404,2.241920 
z"/>
<path fill="#676A70" opacity="1.000000" stroke="none" 
	d="
M150.819305,156.801468 
	C150.632904,156.901810 150.453308,156.790268 150.013397,156.495987 
	C150.110764,156.405365 150.468445,156.497482 150.819305,156.801468 
z"/>
<path fill="#46474B" opacity="1.000000" stroke="none" 
	d="
M189.829803,271.049255 
	C189.755219,271.173492 189.492996,271.283569 189.250458,271.242737 
	C189.270142,271.091827 189.642181,271.035095 189.829803,271.049255 
z"/>
<path fill="#686B71" opacity="1.000000" stroke="none" 
	d="
M166.812927,167.396942 
	C170.466736,169.869049 173.968857,172.725632 177.742142,175.771210 
	C178.012085,210.314880 178.010864,244.669556 178.012634,279.487244 
	C174.489929,285.493439 170.964249,291.036652 167.168625,296.796082 
	C166.631363,256.747284 166.351624,216.482346 166.123352,176.217087 
	C166.107422,173.406296 166.473038,170.593353 166.812927,167.396942 
z"/>
<path fill="#000000" opacity="1.000000" stroke="none" 
	d="
M162.884003,97.941574 
	C160.170288,97.637039 157.456558,97.332504 153.994843,97.043777 
	C151.156509,96.092575 149.066162,95.125565 146.675354,94.003708 
	C145.197952,92.243683 144.021027,90.638496 142.778320,88.665657 
	C142.088608,85.870094 141.464691,83.442184 140.840775,81.014275 
	C141.227112,79.621361 141.613434,78.228447 142.310455,76.295387 
	C143.756729,74.186729 144.892288,72.618210 146.329498,70.896690 
	C148.741135,69.437576 150.851105,68.131462 153.396362,66.889313 
	C155.306641,66.980370 156.786377,66.940765 158.255814,67.045639 
	C166.357452,67.623863 173.176392,77.134399 171.120041,85.380371 
	C170.366272,87.462509 169.666382,89.189690 168.673401,91.079269 
	C166.548218,93.474976 164.716110,95.708275 162.884003,97.941574 
z"/>
<path fill="#45474B" opacity="1.000000" stroke="none" 
	d="
M171.173920,85.025421 
	C173.176392,77.134399 166.357452,67.623863 158.255814,67.045639 
	C156.786377,66.940765 155.306641,66.980370 153.400558,66.509201 
	C152.986465,65.052414 153.003479,64.039703 153.020493,63.026989 
	C167.974442,62.573257 175.300217,69.345024 175.381897,84.507980 
	C173.705643,84.968010 172.439789,84.996712 171.173920,85.025421 
z"/>
<path fill="#53555A" opacity="1.000000" stroke="none" 
	d="
M152.651764,63.056484 
	C153.003479,64.039703 152.986465,65.052414 152.965271,66.445236 
	C150.851105,68.131462 148.741135,69.437576 146.156097,70.622581 
	C145.126541,69.338562 144.572052,68.175636 144.017563,67.012711 
	C146.772720,65.703804 149.527863,64.394890 152.651764,63.056484 
z"/>
<path fill="#717479" opacity="1.000000" stroke="none" 
	d="
M140.484894,81.066986 
	C141.464691,83.442184 142.088608,85.870094 142.452072,88.734337 
	C141.111298,89.446053 140.030960,89.721436 138.950638,89.996826 
	C137.280472,86.763939 134.789780,83.422134 140.484894,81.066986 
z"/>
<path fill="#86898F" opacity="1.000000" stroke="none" 
	d="
M139.052704,90.333717 
	C140.030960,89.721436 141.111298,89.446053 142.517853,89.101990 
	C144.021027,90.638496 145.197952,92.243683 146.598389,94.316223 
	C146.537506,95.808586 146.253128,96.833603 145.968750,97.858612 
	C143.697418,95.462608 141.426102,93.066605 139.052704,90.333717 
z"/>
<path fill="#4F5154" opacity="1.000000" stroke="none" 
	d="
M171.120041,85.380371 
	C172.439789,84.996712 173.705643,84.968010 175.343445,84.918068 
	C174.336288,87.845596 172.957184,90.794373 171.145844,93.687202 
	C170.131226,92.726471 169.548859,91.821671 168.966492,90.916870 
	C169.666382,89.189690 170.366272,87.462509 171.120041,85.380371 
z"/>
<path fill="#585A5F" opacity="1.000000" stroke="none" 
	d="
M168.673401,91.079269 
	C169.548859,91.821671 170.131226,92.726471 170.883759,93.913330 
	C168.598068,95.442963 166.142227,96.690514 163.285187,97.939819 
	C164.716110,95.708275 166.548218,93.474976 168.673401,91.079269 
z"/>
<path fill="#787B81" opacity="1.000000" stroke="none" 
	d="
M146.222076,98.097870 
	C146.253128,96.833603 146.537506,95.808586 146.898849,94.471069 
	C149.066162,95.125565 151.156509,96.092575 153.609558,97.115891 
	C152.301163,102.888039 149.290939,99.986061 146.222076,98.097870 
z"/>
<path fill="#5C5E64" opacity="1.000000" stroke="none" 
	d="
M143.748779,67.204773 
	C144.572052,68.175636 145.126541,69.338562 145.854446,70.775589 
	C144.892288,72.618210 143.756729,74.186729 142.342560,75.928680 
	C137.661240,72.407410 140.926422,69.959999 143.748779,67.204773 
z"/>
<path fill="#686B71" opacity="1.000000" stroke="none" 
	d="
M139.644196,137.904510 
	C139.982849,141.272537 140.002472,144.624893 140.029358,148.421753 
	C131.106750,157.342102 122.196991,165.839371 113.230034,174.275833 
	C111.426147,175.972977 109.405083,177.439301 107.152802,179.174866 
	C92.047203,164.917480 77.215042,150.555511 62.575989,135.999344 
	C60.852459,134.285568 59.241680,131.525208 59.192139,129.215393 
	C58.910191,116.070755 59.118229,102.915611 59.261948,89.288231 
	C63.127918,95.322906 66.901108,101.827919 70.651390,108.346115 
	C72.612160,111.754051 74.532669,115.185143 76.982971,119.041084 
	C90.673332,127.652565 103.852081,135.828735 117.433212,143.974762 
	C124.573051,141.911682 131.310501,139.878754 138.047943,137.845810 
	C138.473694,137.860153 138.899429,137.874512 139.644196,137.904510 
z"/>
<path fill="#686B71" opacity="1.000000" stroke="none" 
	d="
M140.615906,123.982285 
	C140.476944,127.872604 140.005859,131.651245 139.284271,135.707565 
	C120.263641,120.931206 101.432877,105.951187 82.824242,90.700134 
	C81.104118,89.290375 80.068222,86.187035 79.967926,83.817039 
	C79.638397,76.029968 80.234787,68.196701 79.749847,60.426468 
	C79.540733,57.075668 77.553108,53.835857 76.229713,50.223061 
	C77.873413,50.812130 79.660835,51.723759 81.716476,52.841724 
	C82.214531,63.110046 82.444374,73.172035 82.831421,83.613831 
	C92.017731,90.513680 100.957047,97.162895 110.100174,103.518898 
	C120.062820,110.444588 130.214523,117.098320 140.615906,123.982285 
z"/>
<path fill="#B5A343" opacity="1.000000" stroke="none" 
	d="
M112.002625,119.998772 
	C115.570206,122.801102 119.137794,125.603432 122.517159,128.647888 
	C117.933670,126.955910 113.654732,124.666046 109.112663,123.180878 
	C103.846672,121.458992 98.349625,120.444679 93.417229,124.985939 
	C91.353050,123.725922 89.592522,122.557014 88.046295,121.079529 
	C92.108406,115.810112 97.273331,116.745659 102.372375,117.721016 
	C105.609261,118.340179 108.794319,119.230209 112.002625,119.998772 
z"/>
<path fill="#C0AB42" opacity="1.000000" stroke="none" 
	d="
M93.720879,125.077049 
	C98.349625,120.444679 103.846672,121.458992 109.112663,123.180878 
	C113.654732,124.666046 117.933670,126.955910 122.700188,128.932007 
	C123.664726,129.371979 124.258011,129.769958 124.973068,130.791168 
	C125.056702,131.948166 125.018570,132.481949 124.623535,132.953003 
	C121.404587,131.561661 118.564194,130.183777 115.675743,128.915314 
	C110.548607,126.663696 105.426064,125.983429 100.095276,129.155457 
	C97.764160,127.735001 95.742523,126.406021 93.720879,125.077049 
z"/>
<path fill="#A09145" opacity="1.000000" stroke="none" 
	d="
M78.996025,116.124626 
	C78.700432,115.305870 78.404839,114.487106 78.248756,113.075043 
	C81.867691,111.423935 85.287270,109.898285 88.843811,109.443367 
	C92.223869,109.011017 95.747124,109.698250 99.207420,109.893204 
	C100.728325,111.007729 102.249229,112.122269 103.625351,113.655731 
	C101.861214,114.054588 100.139656,114.387398 98.640259,113.953133 
	C92.282509,112.111778 86.604317,113.353210 81.133896,117.122696 
	C80.262749,116.730598 79.629387,116.427612 78.996025,116.124626 
z"/>
<path fill="#AB9B44" opacity="1.000000" stroke="none" 
	d="
M81.371674,117.211815 
	C86.604317,113.353210 92.282509,112.111778 98.640259,113.953133 
	C100.139656,114.387398 101.861214,114.054588 103.805275,113.921265 
	C106.636299,115.657524 109.142632,117.547173 111.825790,119.717796 
	C108.794319,119.230209 105.609261,118.340179 102.372375,117.721016 
	C97.273331,116.745659 92.108406,115.810112 87.731636,120.938339 
	C85.259018,119.807762 83.315346,118.509789 81.371674,117.211815 
z"/>
<path fill="#948747" opacity="1.000000" stroke="none" 
	d="
M99.024506,109.616196 
	C95.747124,109.698250 92.223869,109.011017 88.843811,109.443367 
	C85.287270,109.898285 81.867691,111.423935 78.167191,112.758942 
	C76.960182,111.262260 75.974251,109.488380 75.278679,107.285156 
	C78.980545,106.267319 82.373703,105.410141 85.809372,105.175636 
	C88.541946,104.989113 91.326462,105.563522 94.087914,105.800110 
	C95.672478,106.979805 97.257034,108.159492 99.024506,109.616196 
z"/>
<path fill="#847A49" opacity="1.000000" stroke="none" 
	d="
M93.910706,105.536438 
	C91.326462,105.563522 88.541946,104.989113 85.809372,105.175636 
	C82.373703,105.410141 78.980545,106.267319 75.171463,106.956436 
	C73.830986,105.285255 72.888077,103.513458 72.271378,101.389038 
	C78.110634,101.319527 83.623672,101.602646 89.136719,101.885757 
	C90.668976,103.014763 92.201241,104.143768 93.910706,105.536438 
z"/>
<path fill="#606268" opacity="1.000000" stroke="none" 
	d="
M137.746765,137.697479 
	C131.310501,139.878754 124.573051,141.911682 117.445999,143.613403 
	C117.095123,142.319168 117.133850,141.356155 117.550735,140.323608 
	C120.618500,139.484070 123.308121,138.714066 126.351959,137.932922 
	C128.225861,136.981491 129.745529,136.041214 131.265213,135.100922 
	C133.325333,135.917007 135.385452,136.733093 137.746765,137.697479 
z"/>
<path fill="#716B4B" opacity="1.000000" stroke="none" 
	d="
M88.938660,101.620438 
	C83.623672,101.602646 78.110634,101.319527 72.169075,101.061111 
	C71.139069,99.976814 70.537575,98.867813 69.838333,97.454346 
	C73.625839,96.856857 77.511101,96.563828 81.682526,96.166977 
	C84.225990,97.827126 86.483292,99.591118 88.938660,101.620438 
z"/>
<path fill="#B5A343" opacity="1.000000" stroke="none" 
	d="
M130.956207,134.924774 
	C129.745529,136.041214 128.225861,136.981491 126.341293,137.569763 
	C125.644424,135.817078 125.312431,134.416397 124.980438,133.015732 
	C125.018570,132.481949 125.056702,131.948166 125.129059,131.014282 
	C126.991257,131.992325 128.819229,133.370483 130.956207,134.924774 
z"/>
<path fill="#686B71" opacity="1.000000" stroke="none" 
	d="
M73.349457,48.076725 
	C74.071999,48.313511 74.928024,48.831364 75.931458,49.620605 
	C75.213554,49.380592 74.348251,48.869190 73.349457,48.076725 
z"/>
<path fill="#686B71" opacity="1.000000" stroke="none" 
	d="
M228.848328,84.333572 
	C229.621689,82.096222 230.743668,80.165985 230.790512,78.209999 
	C230.983871,70.136040 230.851303,62.054276 230.816269,53.511887 
	C232.033646,52.296047 233.273270,51.543701 235.291077,50.319065 
	C234.798874,52.211639 234.527557,53.254826 234.185760,54.565495 
	C233.858688,62.902527 233.516296,70.970741 233.390442,79.042328 
	C233.344147,82.010925 233.809494,84.987511 233.718384,88.534996 
	C222.542480,97.622551 211.712341,106.164749 200.829834,114.639687 
	C191.523010,121.887505 182.156113,129.058197 172.815781,136.262985 
	C172.549545,132.806290 172.283325,129.349609 172.017181,125.444122 
	C189.336685,112.988556 206.670395,101.002289 223.953552,88.943565 
	C225.693176,87.729790 227.126892,86.077583 228.848328,84.333572 
z"/>
<path fill="#686B71" opacity="1.000000" stroke="none" 
	d="
M238.063965,48.893410 
	C238.222794,48.510941 238.479630,48.235363 238.736465,47.959782 
	C238.834885,48.066547 238.933304,48.173313 239.031708,48.280071 
	C238.741791,48.520145 238.451874,48.760223 238.063965,48.893410 
z"/>
<path fill="#676A70" opacity="1.000000" stroke="none" 
	d="
M282.024414,14.630217 
	C281.631989,14.712104 281.293793,14.658236 280.955566,14.604364 
	C281.006622,14.466678 281.086151,14.205429 281.104523,14.209659 
	C281.433624,14.285469 281.755341,14.393412 282.024414,14.630217 
z"/>
<path fill="#686B71" opacity="1.000000" stroke="none" 
	d="
M242.926666,44.889458 
	C242.968689,44.853672 243.102234,45.089642 243.102234,45.089642 
	C243.102234,45.089642 242.884628,44.925243 242.926666,44.889458 
z"/>
<path fill="#676A70" opacity="1.000000" stroke="none" 
	d="
M276.502808,18.505783 
	C276.496307,18.485655 276.509338,18.525909 276.502808,18.505783 
z"/>
<path fill="#686B71" opacity="1.000000" stroke="none" 
	d="
M247.504288,41.496170 
	C247.484024,41.501926 247.524551,41.490417 247.504288,41.496170 
z"/>
<path fill="#686B71" opacity="1.000000" stroke="none" 
	d="
M235.996811,119.023239 
	C240.231598,111.513733 244.470917,104.006775 248.698471,96.493210 
	C250.001709,94.176994 251.272812,91.842690 252.786514,89.262108 
	C253.342773,91.606567 253.931335,94.203239 253.954788,96.805000 
	C254.060562,108.541153 254.006287,120.278748 254.013626,132.478058 
	C238.124771,148.496567 222.231995,164.052811 206.142609,179.900375 
	C195.790833,170.440399 185.300140,161.001968 175.713104,150.720871 
	C173.275131,148.106430 173.708328,142.814651 173.197403,138.300522 
	C174.299713,137.853424 175.026901,137.858856 176.038376,138.120895 
	C182.883026,140.251663 189.443390,142.125824 196.333862,143.890656 
	C209.774902,135.528610 222.885864,127.275925 235.996811,119.023239 
z"/>
<path fill="#585A5F" opacity="1.000000" stroke="none" 
	d="
M175.754105,137.864288 
	C175.026901,137.858856 174.299713,137.853424 173.205261,137.835068 
	C172.831009,137.474121 172.823990,137.126099 172.816376,136.520538 
	C182.156113,129.058197 191.523010,121.887505 200.829834,114.639687 
	C211.712341,106.164749 222.542480,97.622551 233.728241,88.977364 
	C235.130524,89.153999 236.199936,89.462807 237.594055,89.835014 
	C237.927948,90.080597 237.937134,90.262787 237.647308,90.842903 
	C234.880142,93.123314 232.411957,95.005798 229.670776,97.050430 
	C228.267227,98.144424 227.136673,99.076279 225.716736,100.164291 
	C223.549011,101.828468 221.670685,103.336494 219.523743,105.000679 
	C218.155609,106.096718 217.056076,107.036598 215.662109,108.110535 
	C213.880646,109.482262 212.393600,110.719940 210.637695,112.072632 
	C209.483185,112.936775 208.597519,113.685921 207.417480,114.619720 
	C203.005005,118.169746 198.886902,121.535110 194.464386,125.031143 
	C189.718002,129.048172 185.276016,132.934540 180.463150,136.827438 
	C178.646210,137.177399 177.200150,137.520828 175.754105,137.864288 
z"/>
<path fill="#686B71" opacity="1.000000" stroke="none" 
	d="
M106.994644,206.469543 
	C111.120514,202.093918 115.247810,198.186844 119.636833,194.073425 
	C119.929024,212.682083 119.976097,231.497086 119.960831,250.312042 
	C119.959503,251.952301 119.548134,253.592239 119.170273,255.612305 
	C115.354027,250.242798 111.532021,244.586945 108.136192,238.685852 
	C107.138298,236.951767 107.081161,234.526093 107.052101,232.411072 
	C106.935478,223.921432 106.999084,215.429306 106.994644,206.469543 
z"/>
<path fill="#686B71" opacity="1.000000" stroke="none" 
	d="
M193.376358,196.225220 
	C197.480774,199.350250 201.482437,202.955215 205.752319,206.751495 
	C206.014496,216.978867 206.008438,227.014954 206.003998,237.517944 
	C203.087112,242.556793 200.223236,247.165085 197.218658,251.679733 
	C196.245300,253.142258 194.903122,254.359314 193.429688,255.812149 
	C193.177673,236.192123 193.225632,216.448639 193.376358,196.225220 
z"/>
<path fill="#787B81" opacity="1.000000" stroke="none" 
	d="
M117.172577,140.393158 
	C117.133850,141.356155 117.095123,142.319168 117.043610,143.643539 
	C103.852081,135.828735 90.673332,127.652565 77.248222,119.252533 
	C77.554886,118.219414 78.107918,117.410156 78.828484,116.362762 
	C79.629387,116.427612 80.262749,116.730598 81.133896,117.122696 
	C83.315346,118.509789 85.259018,119.807762 87.517334,121.246925 
	C89.592522,122.557014 91.353050,123.725922 93.417229,124.985939 
	C95.742523,126.406021 97.764160,127.735001 100.346863,129.408752 
	C106.329475,133.300079 111.751030,136.846619 117.172577,140.393158 
z"/>
<path fill="#5C5E64" opacity="1.000000" stroke="none" 
	d="
M235.836121,118.769669 
	C222.885864,127.275925 209.774902,135.528610 196.323486,143.514313 
	C195.964523,142.243546 195.945999,141.239777 196.209351,140.026703 
	C198.326157,138.541412 200.161102,137.265411 202.327667,135.895538 
	C207.117874,132.894409 211.576447,129.987137 216.348083,126.978676 
	C218.105164,125.913887 219.549179,124.950302 221.306747,123.889389 
	C223.069611,122.814583 224.518921,121.837120 226.273163,120.748947 
	C228.180679,119.505318 229.783249,118.372391 231.662201,117.163231 
	C232.615616,116.741531 233.292633,116.396065 233.969666,116.050606 
	C234.538254,116.872437 235.106842,117.694267 235.836121,118.769669 
z"/>
<path fill="#948747" opacity="1.000000" stroke="none" 
	d="
M234.062531,115.707253 
	C233.292633,116.396065 232.615616,116.741531 231.453079,116.818283 
	C230.160599,109.861877 226.087204,106.292740 219.792358,104.844513 
	C221.670685,103.336494 223.549011,101.828468 226.096130,100.220131 
	C231.692871,100.524139 235.334061,103.026428 238.048218,107.040176 
	C236.750595,109.814751 235.452988,112.589325 234.062531,115.707253 
z"/>
<path fill="#716B4B" opacity="1.000000" stroke="none" 
	d="
M229.943787,96.888283 
	C232.411957,95.005798 234.880142,93.123314 237.660187,91.116241 
	C239.837341,92.195885 241.702652,93.400124 243.830963,94.817871 
	C243.160950,97.163979 242.227951,99.296570 240.799072,101.597580 
	C236.850052,100.140091 233.396912,98.514191 229.943787,96.888283 
z"/>
<path fill="#847A49" opacity="1.000000" stroke="none" 
	d="
M229.670776,97.050430 
	C233.396912,98.514191 236.850052,100.140091 240.622192,101.896591 
	C240.121567,103.539497 239.301910,105.051804 238.265228,106.802147 
	C235.334061,103.026428 231.692871,100.524139 226.385529,100.063980 
	C227.136673,99.076279 228.267227,98.144424 229.670776,97.050430 
z"/>
<path fill="#C9B341" opacity="1.000000" stroke="none" 
	d="
M117.550735,140.323608 
	C111.751030,136.846619 106.329475,133.300079 100.656342,129.500244 
	C105.426064,125.983429 110.548607,126.663696 115.675743,128.915314 
	C118.564194,130.183777 121.404587,131.561661 124.623535,132.953003 
	C125.312431,134.416397 125.644424,135.817078 125.987076,137.580902 
	C123.308121,138.714066 120.618500,139.484070 117.550735,140.323608 
z"/>
<path fill="#717479" opacity="1.000000" stroke="none" 
	d="
M195.927490,140.236008 
	C195.945999,141.239777 195.964523,142.243546 195.993408,143.623657 
	C189.443390,142.125824 182.883026,140.251663 176.038376,138.120880 
	C177.200150,137.520828 178.646210,137.177399 180.886246,136.865738 
	C186.429321,138.010330 191.178406,139.123169 195.927490,140.236008 
z"/>
<path fill="#C0AB42" opacity="1.000000" stroke="none" 
	d="
M216.035019,127.079880 
	C211.576447,129.987137 207.117874,132.894409 202.381836,135.506287 
	C203.389908,127.555817 203.064316,127.098175 194.768799,124.900467 
	C198.886902,121.535110 203.005005,118.169746 207.709320,114.872864 
	C213.444534,117.349426 216.728867,120.946419 216.035019,127.079880 
z"/>
<path fill="#C9B341" opacity="1.000000" stroke="none" 
	d="
M194.464386,125.031143 
	C203.064316,127.098175 203.389908,127.555817 202.050201,135.600128 
	C200.161102,137.265411 198.326157,138.541412 196.209351,140.026703 
	C191.178406,139.123169 186.429321,138.010330 181.257141,136.859207 
	C185.276016,132.934540 189.718002,129.048172 194.464386,125.031143 
z"/>
<path fill="#B5A343" opacity="1.000000" stroke="none" 
	d="
M216.348083,126.978676 
	C216.728867,120.946419 213.444534,117.349426 208.003693,114.688194 
	C208.597519,113.685921 209.483185,112.936775 211.035278,112.108452 
	C219.844391,113.406303 220.922119,114.793274 220.993195,123.986710 
	C219.549179,124.950302 218.105164,125.913887 216.348083,126.978676 
z"/>
<path fill="#AB9B44" opacity="1.000000" stroke="none" 
	d="
M221.306747,123.889381 
	C220.922119,114.793274 219.844391,113.406303 211.304153,111.993446 
	C212.393600,110.719940 213.880646,109.482262 216.020935,108.207184 
	C224.824036,110.737045 225.873138,112.169464 225.968231,120.859650 
	C224.518921,121.837120 223.069611,122.814583 221.306747,123.889381 
z"/>
<path fill="#A09145" opacity="1.000000" stroke="none" 
	d="
M226.273163,120.748940 
	C225.873138,112.169464 224.824036,110.737045 216.315369,108.073135 
	C217.056076,107.036598 218.155609,106.096718 219.523743,105.000671 
	C226.087204,106.292740 230.160599,109.861877 231.176697,116.894524 
	C229.783249,118.372391 228.180679,119.505318 226.273163,120.748940 
z"/>
</svg>